# xmcd
#
# Track frame offsets: 
#        150
#        34057
#        67220
#        97767
#        123244
#        157516
#
# Disc length: 2498 seconds
#
# Revision: 1
# Processed by: cddbd v1.5.2PL0 Copyright (c) Steve Scherf et al.
# Submitted via: ExactAudioCopy v0.90b4
#
DISCID=3e09c006
DTITLE=Duke Robillard and Herb Ellis - More Conversations In Swing Guita
DTITLE=r
DYEAR=2003
DGENRE=Blues
TTITLE0=Moten Swing
TTITLE1=Train To Texas
TTITLE2=Robin's Nest
TTITLE3=Just You And Me
TTITLE4=Blues For Terry
TTITLE5=End Of Session Jump
EXTD=
EXTT0=
EXTT1=
EXTT2=
EXTT3=
EXTT4=
EXTT5=
PLAYORDER=
